ply
format ascii 1.0
comment https://github.com/mikedh/trimesh
element vertex 18
property float x
property float y
property float z
element face 32
property list uchar int vertex_indices
end_header
21.86400032 88.40499878 60.27500153
29.77199936 82.63899994 55.32799911
31.65099907 67.78399658 46.93199921
31.17200089 62.34199905 45.43700027
26.21400070 44.00400162 65.36499786
22.77099991 44.41500092 77.54499817
15.59500027 54.81000137 86.85700226
-3.70000005 73.97100067 78.40599823
9.71000004 91.80200195 67.32499695
21.05204773 90.25386047 56.82210922
28.96004677 84.48786163 51.87511063
30.83904648 69.63285828 43.47911072
30.36004639 64.19085693 41.98410797
25.40204620 45.85285950 61.91210938
21.95904732 46.26385880 74.09210968
14.78304672 56.65885925 83.40410614
-4.51195288 75.81986237 74.95310974
8.89804649 93.65085602 63.87210846
3 0 1 2
3 0 2 3
3 0 3 4
3 0 4 5
3 0 5 6
3 0 6 7
3 0 7 8
3 9 11 10
3 9 12 11
3 9 13 12
3 9 14 13
3 9 15 14
3 9 16 15
3 9 17 16
3 0 1 10
3 0 10 9
3 1 2 11
3 1 11 10
3 2 3 12
3 2 12 11
3 3 4 13
3 3 13 12
3 4 5 14
3 4 14 13
3 5 6 15
3 5 15 14
3 6 7 16
3 6 16 15
3 7 8 17
3 7 17 16
3 8 0 9
3 8 9 17
